<svg xmlns="http://www.w3.org/2000/svg" width="19" height="19" fill="#fff"><path d="M16.491 13.068l-9.994-.056c-.593-.003-1.007.28-.926.633.08.353.626.639 1.218.639h9.208c1.032 0 1.032 2.328 0 2.328l-.663.012c-.366.006-.294.098-.035.434.152.195.242.44.242.712 0 .677-.555 1.228-1.24 1.228-.685 0-1.203-.551-1.203-1.228 0-.251.071-.489.197-.685.215-.338.071-.455-.522-.452l-4.209.016c-.593.003-.724.105-.484.433.141.192.224.429.224.689 0 .677-.554 1.227-1.24 1.227-.688 0-1.202-.55-1.202-1.227 0-.267.079-.507.217-.701.239-.336.209-.437-.269-.444l-.866-.012c-.4 0-1.326-1.066-1.326-1.912 0-.257-.911-8.363-1.242-11.307-.066-.582-.6-1.062-1.192-1.071L.939 2.32c-.593-.009-1.11-.512-.89-1.056C.545.044 1.872 0 1.872 0c1.289 0 1.933.581 2.255 1.138.293.508.341 1.056.37 1.12.028.064.531.114 1.124.113l9.946-.017c2.48 0 2.428 2.505 2.428 2.505l-.007 6.796c-.001 1.388-1.497 1.413-1.497 1.413zM7.128 4.745A1.2 1.2 0 0 0 5.92 5.939a1.2 1.2 0 0 0 1.208 1.193 1.2 1.2 0 0 0 1.206-1.193 1.2 1.2 0 0 0-1.206-1.194zm0 3.58c-.667 0-1.208.536-1.208 1.196 0 .657.541 1.193 1.208 1.193.665 0 1.206-.536 1.206-1.193 0-.661-.541-1.196-1.206-1.196zm3.619-3.58A1.2 1.2 0 0 0 9.54 5.939a1.2 1.2 0 0 0 1.207 1.193c.666 0 1.206-.533 1.206-1.193a1.2 1.2 0 0 0-1.206-1.194zm0 3.58c-.667 0-1.207.536-1.207 1.196 0 .657.54 1.193 1.207 1.193a1.2 1.2 0 0 0 1.206-1.193 1.2 1.2 0 0 0-1.206-1.196zm3.62-3.58c-.665 0-1.207.534-1.207 1.194a1.2 1.2 0 0 0 1.207 1.193 1.2 1.2 0 0 0 1.207-1.193 1.2 1.2 0 0 0-1.207-1.194zm0 3.58c-.665 0-1.207.536-1.207 1.196 0 .657.542 1.193 1.207 1.193.666 0 1.207-.536 1.207-1.193 0-.661-.541-1.196-1.207-1.196z"/></svg>