<svg xmlns="http://www.w3.org/2000/svg" width="14" height="15" viewBox="0 0 511.999 511.999" fill="#fff"><path d="M496.131 435.698L374.855 332.551c-12.537-11.283-25.945-16.463-36.777-15.963C366.707 283.055 384 239.549 384 192 384 85.961 298.039 0 192 0 85.962 0 0 85.961 0 192s85.961 192 192 192c47.549 0 91.055-17.293 124.588-45.922-.5 10.831 4.68 24.238 15.963 36.775L435.697 496.13c17.662 19.623 46.512 21.277 64.109 3.678 17.6-17.599 15.948-46.449-3.675-64.11zM192 320c-70.692 0-128-57.309-128-128 0-70.692 57.308-128 128-128 70.691 0 128 57.308 128 128 0 70.691-57.307 128-128 128z"/></svg>