<svg xmlns="http://www.w3.org/2000/svg" width="27" height="23" fill="#fff"><path d="M27 2.724c-.993.462-2.061.774-3.181.914A5.78 5.78 0 0 0 26.254.426a10.763 10.763 0 0 1-3.518 1.409C21.726.707 20.286.002 18.693.002c-3.059 0-5.539 2.599-5.539 5.805 0 .455.049.898.143 1.323C8.693 6.888 4.612 4.577 1.88 1.064a5.993 5.993 0 0 0-.75 2.919c0 2.014.978 3.791 2.464 4.832a5.323 5.323 0 0 1-2.509-.726v.073c0 2.813 1.909 5.159 4.443 5.693a5.333 5.333 0 0 1-2.502.099c.705 2.306 2.751 3.985 5.175 4.031-1.896 1.558-4.284 2.486-6.88 2.486-.447 0-.888-.028-1.321-.081 2.452 1.647 5.363 2.608 8.491 2.608 10.189 0 15.761-8.846 15.761-16.518 0-.252-.006-.502-.016-.751A11.577 11.577 0 0 0 27 2.724"/></svg>